# xmcd CD database file
#
# Track frame offsets:
#	150
#	10350
#	21775
#	36730
#	51782
#	66885
#	79800
#	93575
#	106455
#	116122
#	131477
#	150050
#	160947
#	176035
#	190970
#	204742
#	209725
#	222310
#	231685
#	239745
#	252370
#	263040
#	273860
#	283082
#	290660
#	299620
#	310990
#	314815
#
# Disc length: 4417 seconds
#
# Revision: 0
# Processed by: cddbd v1.5PL3 Copyright (c) Steve Scherf et al.
# Submitted via: CDex 1.51
#
DISCID=c8113f1c
DTITLE=Hammie Nixon and "Sleepy" John Adam Estes - Tennesse Blues Vol.2
DYEAR=1960
DGENRE=Blues
TTITLE0=You're so fine
TTITLE1=Nix's Boogie
TTITLE2=Sweet old kokomo
TTITLE3=My Babe
TTITLE4=But someday baby
TTITLE5=Yeller Yams
TTITLE6=Yeller yams (n.2)
TTITLE7=You know i don't want no woman
TTITLE8=Somebody done changed that little lock on my door
TTITLE9=Sweet old kokomo
TTITLE10=Sugar mama
TTITLE11=So long
TTITLE12=She keeps me worried and bothered all the time
TTITLE13=Holy spirit don't leave me
TTITLE14=Lord have mercy
TTITLE15=Clean that home
TTITLE16=When you lose your eversight
TTITLE17=I wanna tear it all the time
TTITLE18=I'm twist
TTITLE19=Broke and hungry
TTITLE20=She was a dreamer
TTITLE21=Someday baby blues
TTITLE22=Mailman
TTITLE23=Kansas city blues
TTITLE24=Need more
TTITLE25=I came for to do it
TTITLE26=John and hammies blues
TTITLE27=The girl i love she got long curly hair
EXTD=YEAR: 1960
EXTT0=
EXTT1=
EXTT2=
EXTT3=
EXTT4=
EXTT5=
EXTT6=
EXTT7=
EXTT8=
EXTT9=
EXTT10=
EXTT11=
EXTT12=
EXTT13=
EXTT14=
EXTT15=
EXTT16=
EXTT17=
EXTT18=
EXTT19=
EXTT20=
EXTT21=
EXTT22=
EXTT23=
EXTT24=
EXTT25=
EXTT26=
EXTT27=
PLAYORDER=
